<mxfile host="65bd71144e">
    <diagram id="nKOA2vpiCNPPaJPUqqp7" name="LÃ³gica">
        <mxGraphModel dx="685" dy="746" grid="1" gridSize="10" guides="1" tooltips="1" connect="1" arrows="1" fold="1" page="1" pageScale="1" pageWidth="850" pageHeight="1100" math="0" shadow="0">
            <root>
                <mxCell id="0"/>
                <mxCell id="1" parent="0"/>
                <mxCell id="19" value="" style="edgeStyle=orthogonalEdgeStyle;rounded=0;orthogonalLoop=1;jettySize=auto;html=1;" parent="1" source="30" target="29" edge="1">
                    <mxGeometry relative="1" as="geometry">
                        <mxPoint x="361" y="205" as="sourcePoint"/>
                    </mxGeometry>
                </mxCell>
                <mxCell id="20" value="ClasseAbstrata: Mnemonic" style="rounded=1;whiteSpace=wrap;html=1;" parent="1" vertex="1">
                    <mxGeometry x="314" y="651" width="120" height="60" as="geometry"/>
                </mxCell>
                <mxCell id="21" style="edgeStyle=orthogonalEdgeStyle;rounded=0;orthogonalLoop=1;jettySize=auto;html=1;endArrow=block;endFill=0;" parent="1" source="22" target="20" edge="1">
                    <mxGeometry relative="1" as="geometry"/>
                </mxCell>
                <mxCell id="22" value="Mnemonic: MOV" style="rounded=1;whiteSpace=wrap;html=1;" parent="1" vertex="1">
                    <mxGeometry x="236" y="507" width="120" height="60" as="geometry"/>
                </mxCell>
                <mxCell id="23" style="edgeStyle=orthogonalEdgeStyle;rounded=0;orthogonalLoop=1;jettySize=auto;html=1;endArrow=block;endFill=0;" parent="1" source="24" target="20" edge="1">
                    <mxGeometry relative="1" as="geometry"/>
                </mxCell>
                <mxCell id="24" value="Mnemonic: ADD" style="rounded=1;whiteSpace=wrap;html=1;" parent="1" vertex="1">
                    <mxGeometry x="396" y="507" width="120" height="60" as="geometry"/>
                </mxCell>
                <mxCell id="25" value="" style="sketch=0;pointerEvents=1;shadow=0;dashed=0;html=1;strokeColor=none;labelPosition=center;verticalLabelPosition=bottom;verticalAlign=top;outlineConnect=0;align=center;shape=mxgraph.office.concepts.folder;fillColor=#7FBA42;" parent="1" vertex="1">
                    <mxGeometry x="40" y="40" width="243" height="194" as="geometry"/>
                </mxCell>
                <mxCell id="26" value="mov.py" style="whiteSpace=wrap;html=1;aspect=fixed;verticalAlign=top;" parent="1" vertex="1">
                    <mxGeometry x="67" y="104" width="93" height="93" as="geometry"/>
                </mxCell>
                <mxCell id="27" value="add.py" style="whiteSpace=wrap;html=1;aspect=fixed;verticalAlign=top;" parent="1" vertex="1">
                    <mxGeometry x="172" y="104" width="94" height="94" as="geometry"/>
                </mxCell>
                <mxCell id="28" style="edgeStyle=orthogonalEdgeStyle;rounded=0;orthogonalLoop=1;jettySize=auto;html=1;" parent="1" source="29" target="25" edge="1">
                    <mxGeometry relative="1" as="geometry">
                        <Array as="points">
                            <mxPoint x="245" y="282"/>
                        </Array>
                    </mxGeometry>
                </mxCell>
                <mxCell id="29" value="Construtor:&lt;br&gt;- ler se tem mnemonicos na pasta&lt;br&gt;- adicionar na lista de mnemonicos (classe pai: Mnemonic)" style="rounded=1;whiteSpace=wrap;html=1;" parent="1" vertex="1">
                    <mxGeometry x="282" y="237" width="202" height="86" as="geometry"/>
                </mxCell>
                <mxCell id="30" value="Classe: MiniAssembler&lt;br&gt;" style="rounded=1;whiteSpace=wrap;html=1;" parent="1" vertex="1">
                    <mxGeometry x="323" y="107" width="120" height="60" as="geometry"/>
                </mxCell>
                <mxCell id="31" value="" style="edgeStyle=orthogonalEdgeStyle;rounded=0;orthogonalLoop=1;jettySize=auto;html=1;" parent="1" source="29" target="34" edge="1">
                    <mxGeometry relative="1" as="geometry">
                        <mxPoint x="351" y="342" as="sourcePoint"/>
                    </mxGeometry>
                </mxCell>
                <mxCell id="32" style="edgeStyle=orthogonalEdgeStyle;rounded=0;orthogonalLoop=1;jettySize=auto;html=1;" parent="1" source="34" target="22" edge="1">
                    <mxGeometry relative="1" as="geometry"/>
                </mxCell>
                <mxCell id="33" style="edgeStyle=orthogonalEdgeStyle;rounded=0;orthogonalLoop=1;jettySize=auto;html=1;" parent="1" source="34" target="24" edge="1">
                    <mxGeometry relative="1" as="geometry"/>
                </mxCell>
                <mxCell id="34" value="lista_mnemonicos" style="rounded=0;whiteSpace=wrap;html=1;" parent="1" vertex="1">
                    <mxGeometry x="323" y="372" width="120" height="60" as="geometry"/>
                </mxCell>
                <mxCell id="35" value="Mnemonic: MOV" style="rounded=1;whiteSpace=wrap;html=1;" parent="1" vertex="1">
                    <mxGeometry x="77" y="140" width="74" height="44" as="geometry"/>
                </mxCell>
                <mxCell id="36" value="Mnemonic: ADD" style="rounded=1;whiteSpace=wrap;html=1;" parent="1" vertex="1">
                    <mxGeometry x="184" y="140" width="74" height="43" as="geometry"/>
                </mxCell>
            </root>
        </mxGraphModel>
    </diagram>
    <diagram id="l26ROmEUZfq2mStLfPHK" name="Conceitual">
        <mxGraphModel dx="2230" dy="533" grid="1" gridSize="10" guides="1" tooltips="1" connect="1" arrows="1" fold="1" page="1" pageScale="1" pageWidth="850" pageHeight="1100" math="0" shadow="0">
            <root>
                <mxCell id="0"/>
                <mxCell id="1" parent="0"/>
                <mxCell id="jljpZA7XOwRZbbCBXwoL-9" style="edgeStyle=orthogonalEdgeStyle;html=1;strokeWidth=1;endArrow=open;endFill=0;startSize=12;endSize=12;dashed=1;dashPattern=8 8;" parent="1" source="jljpZA7XOwRZbbCBXwoL-2" target="jljpZA7XOwRZbbCBXwoL-5" edge="1">
                    <mxGeometry relative="1" as="geometry">
                        <mxPoint x="-560" y="50" as="targetPoint"/>
                        <Array as="points">
                            <mxPoint x="-680" y="300"/>
                            <mxPoint x="-680" y="230"/>
                        </Array>
                    </mxGeometry>
                </mxCell>
                <mxCell id="jljpZA7XOwRZbbCBXwoL-11" style="edgeStyle=orthogonalEdgeStyle;html=1;dashed=1;dashPattern=8 8;strokeWidth=1;endArrow=open;endFill=0;startSize=12;endSize=12;" parent="1" source="jljpZA7XOwRZbbCBXwoL-2" target="jljpZA7XOwRZbbCBXwoL-6" edge="1">
                    <mxGeometry relative="1" as="geometry">
                        <Array as="points">
                            <mxPoint x="-680" y="300"/>
                            <mxPoint x="-680" y="350"/>
                        </Array>
                    </mxGeometry>
                </mxCell>
                <mxCell id="jljpZA7XOwRZbbCBXwoL-2" value="Classe: InterpretadorAssembler" style="rounded=1;whiteSpace=wrap;html=1;" parent="1" vertex="1">
                    <mxGeometry x="-870" y="270" width="160" height="60" as="geometry"/>
                </mxCell>
                <mxCell id="jljpZA7XOwRZbbCBXwoL-4" value="Classe abstrata: Mnemonico" style="rounded=1;whiteSpace=wrap;html=1;" parent="1" vertex="1">
                    <mxGeometry x="-520" y="100" width="120" height="60" as="geometry"/>
                </mxCell>
                <mxCell id="jljpZA7XOwRZbbCBXwoL-7" value="" style="edgeStyle=orthogonalEdgeStyle;html=1;endArrow=block;endFill=0;endSize=12;startSize=12;dashed=1;dashPattern=8 8;" parent="1" source="jljpZA7XOwRZbbCBXwoL-5" target="jljpZA7XOwRZbbCBXwoL-4" edge="1">
                    <mxGeometry relative="1" as="geometry">
                        <Array as="points">
                            <mxPoint x="-460" y="230"/>
                        </Array>
                    </mxGeometry>
                </mxCell>
                <mxCell id="jljpZA7XOwRZbbCBXwoL-5" value="Mnemonico: Add" style="rounded=1;whiteSpace=wrap;html=1;" parent="1" vertex="1">
                    <mxGeometry x="-640" y="200" width="120" height="60" as="geometry"/>
                </mxCell>
                <mxCell id="jljpZA7XOwRZbbCBXwoL-8" style="edgeStyle=orthogonalEdgeStyle;html=1;endArrow=block;endFill=0;endSize=12;startSize=12;dashed=1;dashPattern=8 8;" parent="1" source="jljpZA7XOwRZbbCBXwoL-6" target="jljpZA7XOwRZbbCBXwoL-4" edge="1">
                    <mxGeometry relative="1" as="geometry">
                        <Array as="points">
                            <mxPoint x="-460" y="350"/>
                        </Array>
                    </mxGeometry>
                </mxCell>
                <mxCell id="jljpZA7XOwRZbbCBXwoL-6" value="Mnemonico: Jmp" style="rounded=1;whiteSpace=wrap;html=1;" parent="1" vertex="1">
                    <mxGeometry x="-640" y="320" width="120" height="60" as="geometry"/>
                </mxCell>
                <mxCell id="06D_mj-NrfhjnR2ig6a_-4" value="" style="edgeStyle=orthogonalEdgeStyle;html=1;dashed=1;dashPattern=8 8;endArrow=open;endFill=0;" edge="1" parent="1" source="06D_mj-NrfhjnR2ig6a_-1" target="jljpZA7XOwRZbbCBXwoL-2">
                    <mxGeometry relative="1" as="geometry">
                        <Array as="points">
                            <mxPoint x="-880" y="300"/>
                            <mxPoint x="-880" y="300"/>
                        </Array>
                    </mxGeometry>
                </mxCell>
                <mxCell id="06D_mj-NrfhjnR2ig6a_-1" value="main.py" style="rounded=1;whiteSpace=wrap;html=1;" vertex="1" parent="1">
                    <mxGeometry x="-1040" y="270" width="120" height="60" as="geometry"/>
                </mxCell>
            </root>
        </mxGraphModel>
    </diagram>
    <diagram id="HcLT9_Q3X_Zo86IvGJfH" name="PÃ¡gina-3">
        <mxGraphModel dx="685" dy="746" grid="1" gridSize="10" guides="1" tooltips="1" connect="1" arrows="1" fold="1" page="1" pageScale="1" pageWidth="850" pageHeight="1100" math="0" shadow="0">
            <root>
                <mxCell id="0"/>
                <mxCell id="1" parent="0"/>
                <mxCell id="RZctncI5Ccv3RmuEscH6-1" value="src" style="rounded=0;whiteSpace=wrap;html=1;" parent="1" vertex="1">
                    <mxGeometry x="160" y="160" width="120" height="60" as="geometry"/>
                </mxCell>
                <mxCell id="RZctncI5Ccv3RmuEscH6-3" value="&lt;h1&gt;Pastas&lt;/h1&gt;&lt;div&gt;src&lt;/div&gt;&lt;div&gt;&lt;span style=&quot;white-space: pre;&quot;&gt;&#9;&lt;/span&gt;main.py&lt;br&gt;&lt;/div&gt;&lt;div&gt;&lt;span style=&quot;white-space: pre;&quot;&gt;&#9;&lt;/span&gt;interpretador/&lt;br&gt;&lt;/div&gt;&lt;div&gt;&lt;span style=&quot;white-space: pre;&quot;&gt;&#9;&lt;/span&gt;&lt;span style=&quot;white-space: pre;&quot;&gt;&#9;&lt;/span&gt;interpretador.py&lt;br&gt;&lt;/div&gt;&lt;div&gt;&lt;span style=&quot;white-space: pre;&quot;&gt;&#9;&lt;/span&gt;mnemonico/&lt;br&gt;&lt;/div&gt;&lt;div&gt;&lt;span style=&quot;white-space: pre;&quot;&gt;&#9;&lt;/span&gt;&lt;span style=&quot;white-space: pre;&quot;&gt;&#9;&lt;/span&gt;mnemonico.py&lt;br&gt;&lt;/div&gt;" style="text;html=1;strokeColor=none;fillColor=none;spacing=5;spacingTop=-20;whiteSpace=wrap;overflow=hidden;rounded=0;" parent="1" vertex="1">
                    <mxGeometry x="120" y="280" width="190" height="160" as="geometry"/>
                </mxCell>
                <mxCell id="RZctncI5Ccv3RmuEscH6-4" value="mnemonico.py&lt;br&gt;&lt;br&gt;# eu estou na pasta src/&lt;br&gt;import ../interpretador/interpretador.py" style="rounded=0;whiteSpace=wrap;html=1;" parent="1" vertex="1">
                    <mxGeometry x="350" y="550" width="220" height="200" as="geometry"/>
                </mxCell>
                <mxCell id="RZctncI5Ccv3RmuEscH6-6" style="edgeStyle=none;html=1;" parent="1" source="RZctncI5Ccv3RmuEscH6-5" target="RZctncI5Ccv3RmuEscH6-4" edge="1">
                    <mxGeometry relative="1" as="geometry"/>
                </mxCell>
                <mxCell id="RZctncI5Ccv3RmuEscH6-5" value="main.py&lt;br&gt;&lt;br&gt;# eu estou na pasta src/&lt;br&gt;import mnemonico/mnemonico.py" style="rounded=0;whiteSpace=wrap;html=1;" parent="1" vertex="1">
                    <mxGeometry x="360" y="200" width="200" height="200" as="geometry"/>
                </mxCell>
                <mxCell id="RZctncI5Ccv3RmuEscH6-9" style="edgeStyle=none;html=1;" parent="1" source="RZctncI5Ccv3RmuEscH6-8" target="RZctncI5Ccv3RmuEscH6-5" edge="1">
                    <mxGeometry relative="1" as="geometry"/>
                </mxCell>
                <mxCell id="RZctncI5Ccv3RmuEscH6-8" value="UsuÃ¡rio" style="shape=umlActor;verticalLabelPosition=bottom;verticalAlign=top;html=1;outlineConnect=0;" parent="1" vertex="1">
                    <mxGeometry x="680" y="270" width="30" height="60" as="geometry"/>
                </mxCell>
            </root>
        </mxGraphModel>
    </diagram>
    <diagram id="HprPhU21r70h7kpTpG4Z" name="PÃ¡gina-4">
        <mxGraphModel dx="1535" dy="746" grid="1" gridSize="10" guides="1" tooltips="1" connect="1" arrows="1" fold="1" page="1" pageScale="1" pageWidth="850" pageHeight="1100" math="0" shadow="0">
            <root>
                <mxCell id="0"/>
                <mxCell id="1" parent="0"/>
                <mxCell id="FwCQh7G3-Z-LzHwNyk93-1" value="Classe abstrata: Instrucao" style="rounded=1;whiteSpace=wrap;html=1;" vertex="1" parent="1">
                    <mxGeometry x="-690" y="270" width="120" height="60" as="geometry"/>
                </mxCell>
                <mxCell id="FwCQh7G3-Z-LzHwNyk93-4" style="edgeStyle=none;html=1;" edge="1" parent="1" source="FwCQh7G3-Z-LzHwNyk93-2" target="FwCQh7G3-Z-LzHwNyk93-3">
                    <mxGeometry relative="1" as="geometry"/>
                </mxCell>
                <mxCell id="FwCQh7G3-Z-LzHwNyk93-2" value="UsuÃ¡rio" style="shape=umlActor;verticalLabelPosition=bottom;verticalAlign=top;html=1;outlineConnect=0;" vertex="1" parent="1">
                    <mxGeometry x="-750" y="50" width="30" height="60" as="geometry"/>
                </mxCell>
                <mxCell id="FwCQh7G3-Z-LzHwNyk93-6" value="" style="edgeStyle=none;html=1;" edge="1" parent="1" source="FwCQh7G3-Z-LzHwNyk93-3" target="FwCQh7G3-Z-LzHwNyk93-5">
                    <mxGeometry relative="1" as="geometry"/>
                </mxCell>
                <mxCell id="FwCQh7G3-Z-LzHwNyk93-3" value="main.py" style="rounded=1;whiteSpace=wrap;html=1;" vertex="1" parent="1">
                    <mxGeometry x="-680" y="40" width="120" height="60" as="geometry"/>
                </mxCell>
                <mxCell id="FwCQh7G3-Z-LzHwNyk93-5" value="interpretador_assembly" style="rounded=1;whiteSpace=wrap;html=1;" vertex="1" parent="1">
                    <mxGeometry x="-480" y="40" width="160" height="60" as="geometry"/>
                </mxCell>
            </root>
        </mxGraphModel>
    </diagram>
</mxfile>